<svg width="40" height="41" viewBox="0 0 40 41" fill="none" xmlns="http://www.w3.org/2000/svg">
<path d="M8.83398 28.2061H30.7715C31.2637 28.2061 31.6621 27.8076 31.6621 27.3037C31.6621 26.8115 31.2637 26.4248 30.7715 26.4248H8.83398C8.3418 26.4248 7.95508 26.8115 7.95508 27.3037C7.95508 27.8076 8.3418 28.2061 8.83398 28.2061Z" fill="#2C2C2C"/>
<path d="M8.83398 21.0693H30.7715C31.2637 21.0693 31.6621 20.6709 31.6621 20.167C31.6621 19.6748 31.2637 19.2881 30.7715 19.2881H8.83398C8.3418 19.2881 7.95508 19.6748 7.95508 20.167C7.95508 20.6709 8.3418 21.0693 8.83398 21.0693Z" fill="#2C2C2C"/>
<path d="M8.83398 13.9331H30.7715C31.2637 13.9331 31.6621 13.5347 31.6621 13.0308C31.6621 12.5386 31.2637 12.1519 30.7715 12.1519H8.83398C8.3418 12.1519 7.95508 12.5386 7.95508 13.0308C7.95508 13.5347 8.3418 13.9331 8.83398 13.9331Z" fill="#2C2C2C"/>
</svg>
