<svg width="40" height="40" viewBox="0 0 40 40" fill="none" xmlns="http://www.w3.org/2000/svg">
<path d="M11.0117 28.9868C10.6016 28.5884 10.6133 27.9087 11.0117 27.5103L18.5117 19.9986L11.0117 12.4986C10.6133 12.1001 10.6133 11.4321 11.0117 11.022C11.4102 10.6001 12.1016 10.6118 12.5 11.022L20 18.522L27.5 11.022C27.8985 10.6118 28.5781 10.6118 28.9883 11.022C29.3985 11.4204 29.3867 12.1001 28.9883 12.4986L21.4883 19.9986L28.9883 27.5103C29.3867 27.9087 29.3867 28.5767 28.9883 28.9868C28.5899 29.397 27.8985 29.3853 27.5 28.9868L20 21.4868L12.5 28.9868C12.1016 29.3853 11.4219 29.3853 11.0117 28.9868Z" fill="black"/>
</svg>
