<svg width="11" height="19" viewBox="0 0 11 19" fill="none" xmlns="http://www.w3.org/2000/svg">
<path d="M10.5625 9.59668C10.5625 9.94531 10.4395 10.2427 10.1626 10.5093L2.16455 18.333C1.93896 18.5586 1.66211 18.6714 1.33398 18.6714C0.66748 18.6714 0.134277 18.1587 0.134277 17.4819C0.134277 17.1538 0.277832 16.8564 0.493164 16.6309L7.71191 9.59668L0.493164 2.5625C0.267578 2.32666 0.134277 2.0293 0.134277 1.70117C0.134277 1.03467 0.66748 0.521973 1.33398 0.521973C1.66211 0.521973 1.93896 0.634766 2.16455 0.860352L10.1626 8.68408C10.4292 8.95068 10.5625 9.24805 10.5625 9.59668Z" fill="#D4D4D4"/>
</svg>
